<svg version="1.1" id="Layer_1" xmlns="http://www.w3.org/2000/svg" xmlns:xlink="http://www.w3.org/1999/xlink" x="0px" y="0px"
	 width="100%" viewBox="0 0 256 256" enable-background="new 0 0 256 256" xml:space="preserve">
<path fill="#000000" opacity="1.000000" stroke="none" 
	d="
M1.000000,88.000000 
	C1.000000,59.025848 1.000000,30.051697 1.000000,1.038773 
	C86.231407,1.038773 171.462845,1.038773 257.000000,1.038773 
	C257.000000,50.020470 257.000000,99.041580 256.687561,148.862793 
	C255.917908,148.860565 255.362122,148.098114 255.018814,147.249680 
	C252.005478,139.802597 249.030045,132.340179 245.907867,124.562531 
	C243.850021,121.549461 241.927689,118.856178 239.689941,116.002563 
	C237.929260,113.850952 236.484009,111.859673 234.923004,109.571045 
	C233.552261,108.131599 232.297256,106.989502 230.916138,105.543137 
	C229.207733,104.103531 227.625443,102.968201 225.912979,101.524567 
	C224.535919,100.163734 223.417160,98.882759 222.019577,98.098869 
	C216.445068,94.972176 210.783768,92.000229 205.087891,88.643295 
	C204.958725,87.875870 204.896271,87.436142 204.903976,86.599800 
	C202.665298,79.765633 200.356430,73.328079 198.017700,66.519157 
	C195.531311,61.518368 193.074783,56.888954 190.396942,52.006760 
	C187.820404,48.820713 185.465179,45.887451 183.054443,42.606773 
	C179.705383,38.826340 176.411819,35.393322 172.977722,31.641022 
	C171.195023,30.015484 169.649475,28.558453 167.891907,27.432341 
	C163.327682,24.507950 158.670227,21.729046 153.907410,18.568478 
	C153.246811,17.851482 152.777145,17.359053 152.203735,17.079130 
	C136.029556,9.183350 119.160698,5.028615 100.941353,5.823644 
	C90.416458,6.282914 80.309380,7.762409 70.299873,10.956854 
	C51.529175,16.947357 36.301937,28.211021 23.782150,42.937801 
	C13.320919,55.243145 6.600785,69.753426 2.944991,85.590622 
	C2.736182,86.495209 1.668146,87.201447 1.000000,88.000000 
z"/>
<path fill="#62E1FB" opacity="1.000000" stroke="none" 
	d="
M1.000000,88.468658 
	C1.668146,87.201447 2.736182,86.495209 2.944991,85.590622 
	C6.600785,69.753426 13.320919,55.243145 23.782150,42.937801 
	C36.301937,28.211021 51.529175,16.947357 70.299873,10.956854 
	C80.309380,7.762409 90.416458,6.282914 100.941353,5.823644 
	C119.160698,5.028615 136.029556,9.183350 152.203735,17.079130 
	C152.777145,17.359053 153.246811,17.851482 153.744217,18.866533 
	C152.364014,20.943977 151.045914,22.441221 149.638672,23.849394 
	C124.131836,49.373188 98.608971,74.880966 73.112190,100.414803 
	C71.595528,101.933655 70.269722,103.643089 68.574425,105.067520 
	C64.558197,100.349884 59.857040,98.063713 53.905281,98.555046 
	C43.564785,99.408669 34.545677,111.640244 42.994068,124.970665 
	C32.266304,135.977020 21.732180,146.690369 11.088169,157.293411 
	C10.148044,158.229919 8.490270,158.445999 7.092883,158.562378 
	C5.796769,149.997650 4.661285,141.852280 3.278028,133.749207 
	C2.993939,132.085007 1.783471,130.578949 1.000001,129.000000 
	C1.000000,115.645775 1.000000,102.291542 1.000000,88.468658 
z"/>
<path fill="#000000" opacity="1.000000" stroke="none" 
	d="
M1.000001,129.468658 
	C1.783471,130.578949 2.993939,132.085007 3.278028,133.749207 
	C4.661285,141.852280 5.796769,149.997650 7.017222,159.007385 
	C7.398603,165.923233 7.782711,171.959747 8.090990,178.459671 
	C8.065827,185.947800 8.116491,192.972519 8.198477,200.359924 
	C10.520559,202.148560 12.688430,204.472305 15.128665,204.806335 
	C19.667616,205.427628 24.365274,204.889496 29.459972,204.909332 
	C35.947865,204.934113 41.972649,204.883591 48.413322,204.918274 
	C53.218521,205.613647 57.607834,206.223801 62.426857,206.908356 
	C66.903305,207.604950 70.950043,208.227158 75.413124,208.916382 
	C79.885307,209.600204 83.941147,210.217026 88.416428,210.908691 
	C92.528198,211.357254 96.220535,211.730972 100.046844,212.422958 
	C102.420952,215.829758 104.661095,218.918289 106.990540,222.317322 
	C108.336418,223.766006 109.592979,224.904190 110.986450,226.341660 
	C112.706955,228.110229 114.290550,229.579498 116.019203,231.359024 
	C118.451118,233.398178 120.737976,235.127106 123.340225,236.998413 
	C125.734619,238.443298 127.813614,239.745789 130.056763,241.371613 
	C132.110718,242.604187 133.922165,243.768631 135.904282,244.377121 
	C143.237793,246.628433 150.627670,248.696228 158.373917,251.029785 
	C167.165558,251.428955 175.579636,251.631348 184.397522,251.900696 
	C196.198929,250.256088 207.596512,248.544525 219.457779,246.908478 
	C227.861572,246.987320 235.802200,247.047348 243.741623,246.973892 
	C248.935547,246.925842 251.943680,243.960526 251.968124,238.787567 
	C252.008743,230.190277 251.886887,221.592209 251.903351,212.549591 
	C252.696640,205.290436 253.255844,198.452194 254.245270,191.676788 
	C254.535004,189.692749 256.047791,187.887299 257.000000,186.000000 
	C257.000000,209.643890 257.000000,233.287781 257.000000,256.965820 
	C171.771561,256.965820 86.543098,256.965820 1.000000,256.965820 
	C1.000000,214.646286 1.000000,172.291809 1.000001,129.468658 
z"/>
<path fill="#8EEABB" opacity="1.000000" stroke="none" 
	d="
M157.996353,250.833008 
	C150.627670,248.696228 143.237793,246.628433 135.904282,244.377121 
	C133.922165,243.768631 132.110718,242.604187 130.317444,241.158752 
	C132.082489,238.775299 133.673813,236.850876 135.430969,235.092148 
	C169.756485,200.735886 204.096954,166.394577 238.451355,132.067200 
	C240.915161,129.605316 243.509659,127.274216 246.043381,124.882309 
	C249.030045,132.340179 252.005478,139.802597 255.018814,147.249680 
	C255.362122,148.098114 255.917908,148.860565 256.687561,149.331451 
	C257.000000,150.066666 257.000000,151.133347 256.636902,152.581940 
	C254.525604,154.132858 252.527466,155.051147 251.065994,156.507812 
	C221.147232,186.328262 191.281006,216.201508 161.448288,246.108063 
	C160.086884,247.472809 159.137573,249.248627 157.996353,250.833008 
z"/>
<path fill="#87E8B6" opacity="1.000000" stroke="none" 
	d="
M158.373917,251.029785 
	C159.137573,249.248627 160.086884,247.472809 161.448288,246.108063 
	C191.281006,216.201508 221.147232,186.328262 251.065994,156.507812 
	C252.527466,155.051147 254.525604,154.132858 256.636902,152.981934 
	C257.000000,162.020889 257.000000,171.041794 256.707367,180.397675 
	C254.651230,181.613739 252.509674,182.113892 251.180725,183.432831 
	C229.862518,204.590302 208.635712,225.839996 187.438248,247.118668 
	C186.080521,248.481613 185.132385,250.252579 183.993713,251.833740 
	C175.579636,251.631348 167.165558,251.428955 158.373917,251.029785 
z"/>
<path fill="#7FE5AF" opacity="1.000000" stroke="none" 
	d="
M184.397522,251.900681 
	C185.132385,250.252579 186.080521,248.481613 187.438248,247.118668 
	C208.635712,225.839996 229.862518,204.590302 251.180725,183.432831 
	C252.509674,182.113892 254.651230,181.613739 256.707367,180.866333 
	C257.000000,182.388885 257.000000,183.777786 257.000000,185.583344 
	C256.047791,187.887299 254.535004,189.692749 254.245270,191.676788 
	C253.255844,198.452194 252.696640,205.290436 251.576035,212.616135 
	C250.736099,213.344452 250.196289,213.463486 249.864822,213.792465 
	C240.117523,223.467148 230.358856,233.131012 220.712082,242.905258 
	C219.774933,243.854767 219.549759,245.506958 218.994110,246.832977 
	C207.596512,248.544525 196.198929,250.256088 184.397522,251.900681 
z"/>
<path fill="#57DAFA" opacity="1.000000" stroke="none" 
	d="
M68.855103,105.263832 
	C70.269722,103.643089 71.595528,101.933655 73.112190,100.414803 
	C98.608971,74.880966 124.131836,49.373188 149.638672,23.849394 
	C151.045914,22.441221 152.364014,20.943977 153.886780,19.190140 
	C158.670227,21.729046 163.327682,24.507950 167.891907,27.432341 
	C169.649475,28.558453 171.195023,30.015484 172.607986,31.661711 
	C170.736450,33.017315 168.825958,33.763187 167.492035,35.089104 
	C147.933929,54.529709 128.426788,74.021950 109.007324,93.600899 
	C107.607384,95.012314 106.980133,97.190125 105.596313,99.010201 
	C103.059303,98.870621 100.877831,98.393509 98.786926,98.651192 
	C88.048340,99.974602 83.011024,108.828865 85.589447,121.022598 
	C84.864189,121.005577 84.449791,120.994164 83.865295,120.696472 
	C80.813507,117.446724 78.018822,114.390396 75.005547,111.567383 
	C73.865234,110.499069 72.220512,109.969154 70.577744,108.970825 
	C69.851547,107.586487 69.353325,106.425163 68.855103,105.263832 
z"/>
<path fill="#4DD3F9" opacity="1.000000" stroke="none" 
	d="
M105.993622,99.011597 
	C106.980133,97.190125 107.607384,95.012314 109.007324,93.600899 
	C128.426788,74.021950 147.933929,54.529709 167.492035,35.089104 
	C168.825958,33.763187 170.736450,33.017315 172.748535,31.980995 
	C176.411819,35.393322 179.705383,38.826340 182.755920,42.768986 
	C181.059601,44.634701 179.564713,45.949154 178.159302,47.353157 
	C159.375809,66.117821 140.633301,84.923737 121.777298,103.615173 
	C120.249054,105.130081 117.964432,105.881943 115.769440,106.982803 
	C115.333252,106.975632 115.158905,106.974014 114.732574,106.753754 
	C111.651596,104.027275 108.822609,101.519432 105.993622,99.011597 
z"/>
<path fill="#87E7B7" opacity="1.000000" stroke="none" 
	d="
M245.907867,124.562531 
	C243.509659,127.274216 240.915161,129.605316 238.451355,132.067200 
	C204.096954,166.394577 169.756485,200.735886 135.430969,235.092148 
	C133.673813,236.850876 132.082489,238.775299 130.153290,240.835419 
	C127.813614,239.745789 125.734619,238.443298 123.396561,236.668655 
	C124.260948,234.794785 125.266937,233.276306 126.526253,232.009644 
	C137.486588,220.985580 148.524841,210.038742 159.445190,198.975449 
	C160.881348,197.520477 161.783508,195.538391 163.130066,193.542297 
	C174.241089,185.537460 183.111694,175.813858 191.127716,164.889175 
	C194.608093,162.455093 198.009079,160.333435 200.805817,157.594711 
	C212.196182,146.440598 223.462555,135.157349 234.621872,123.771950 
	C236.769043,121.581284 238.228592,118.716629 240.005371,116.162903 
	C241.927689,118.856178 243.850021,121.549461 245.907867,124.562531 
z"/>
<path fill="#46CFF9" opacity="1.000000" stroke="none" 
	d="
M116.031281,106.988365 
	C117.964432,105.881943 120.249054,105.130081 121.777298,103.615173 
	C140.633301,84.923737 159.375809,66.117821 178.159302,47.353157 
	C179.564713,45.949154 181.059601,44.634701 182.811417,43.116402 
	C185.465179,45.887451 187.820404,48.820713 190.162186,52.333759 
	C177.000061,66.208092 163.822647,79.474510 150.740662,92.834366 
	C149.181900,94.426239 148.143402,96.527557 146.487000,98.372406 
	C141.082001,98.521690 136.810394,100.273254 133.471375,104.172897 
	C129.106766,109.270317 129.486832,115.063614 130.493835,120.959381 
	C125.357788,116.626884 120.547333,112.365677 115.777740,108.128525 
	C115.818611,108.152573 115.754547,108.222511 115.836319,107.916794 
	C115.955811,107.403519 115.993546,107.195946 116.031281,106.988365 
z"/>
<path fill="#36C4F7" opacity="1.000000" stroke="none" 
	d="
M198.047562,66.890533 
	C200.356430,73.328079 202.665298,79.765633 204.566956,86.662781 
	C202.280991,88.407578 200.167480,89.452400 198.563339,91.018852 
	C190.891983,98.509972 183.394516,106.178993 175.742874,113.690697 
	C174.386383,115.022362 172.592285,115.908264 170.751770,116.782806 
	C167.162369,113.741280 163.821487,110.916954 160.276703,107.875305 
	C159.679916,106.780220 159.287033,105.902451 159.193481,104.866447 
	C160.941559,103.359161 162.424286,102.044571 163.833679,100.655579 
	C175.246078,89.408455 186.644714,78.147362 198.047562,66.890533 
z"/>
<path fill="#3FCAF8" opacity="1.000000" stroke="none" 
	d="
M198.017700,66.519157 
	C186.644714,78.147362 175.246078,89.408455 163.833679,100.655579 
	C162.424286,102.044571 160.941559,103.359161 158.907745,104.698914 
	C154.503021,102.590652 150.683380,100.491692 146.863739,98.392731 
	C148.143402,96.527557 149.181900,94.426239 150.740662,92.834366 
	C163.822647,79.474510 177.000061,66.208092 190.383514,52.586540 
	C193.074783,56.888954 195.531311,61.518368 198.017700,66.519157 
z"/>
<path fill="#2BBEF6" opacity="1.000000" stroke="none" 
	d="
M171.000259,117.000000 
	C172.592285,115.908264 174.386383,115.022362 175.742874,113.690697 
	C183.394516,106.178993 190.891983,98.509972 198.563339,91.018852 
	C200.167480,89.452400 202.280991,88.407578 204.496780,87.059387 
	C204.896271,87.436142 204.958725,87.875870 205.062057,89.061829 
	C205.653870,96.873985 206.204819,103.939919 206.415924,111.021637 
	C204.587646,111.988297 202.903259,112.733109 201.646896,113.927963 
	C197.574020,117.801476 193.542511,121.732567 189.717072,125.847855 
	C186.454910,129.357193 183.247375,129.464020 179.935989,126.249794 
	C176.861420,123.265427 173.971497,120.090836 171.000259,117.000000 
z"/>
<path fill="#7CE1B3" opacity="1.000000" stroke="none" 
	d="
M239.689941,116.002571 
	C238.228592,118.716629 236.769043,121.581284 234.621872,123.771950 
	C223.462555,135.157349 212.196182,146.440598 200.805817,157.594711 
	C198.009079,160.333435 194.608093,162.455093 191.241486,164.553192 
	C194.106949,157.837357 197.215836,151.428741 200.666840,144.998566 
	C202.017700,144.467514 203.238739,144.172516 204.002960,143.416016 
	C213.771042,133.746780 223.513260,124.050247 233.135880,114.236923 
	C234.174744,113.177460 234.423492,111.343231 235.038757,109.868393 
	C236.484009,111.859673 237.929260,113.850952 239.689941,116.002571 
z"/>
<path fill="#53CA9C" opacity="1.000000" stroke="none" 
	d="
M206.755783,111.005852 
	C206.204819,103.939919 205.653870,96.873985 205.128754,89.389519 
	C210.783768,92.000229 216.445068,94.972176 222.019577,98.098869 
	C223.417160,98.882759 224.535919,100.163734 225.887512,101.897202 
	C225.569717,103.617851 225.406815,104.908813 224.682877,105.656723 
	C219.771622,110.730682 214.792679,115.742821 209.700195,120.633965 
	C208.859894,121.441055 207.354507,121.555710 206.122345,121.569992 
	C206.310730,117.768364 206.533264,114.387108 206.755783,111.005852 
z"/>
<path fill="#73DCAD" opacity="1.000000" stroke="none" 
	d="
M234.923004,109.571045 
	C234.423492,111.343231 234.174744,113.177460 233.135880,114.236923 
	C223.513260,124.050247 213.771042,133.746780 204.002960,143.416016 
	C203.238739,144.172516 202.017700,144.467514 200.724792,144.657318 
	C201.244446,141.893814 202.048264,139.449982 202.966614,136.679245 
	C203.615784,134.871933 204.150406,133.391525 205.045410,131.887939 
	C206.269089,131.402298 207.301361,131.110931 207.969696,130.451004 
	C215.080063,123.429924 222.160782,116.377983 229.165466,109.251778 
	C230.040192,108.361870 230.428543,106.993874 231.042267,105.847404 
	C232.297256,106.989502 233.552261,108.131599 234.923004,109.571045 
z"/>
<path fill="#67D6A8" opacity="1.000000" stroke="none" 
	d="
M230.916138,105.543137 
	C230.428543,106.993874 230.040192,108.361870 229.165466,109.251778 
	C222.160782,116.377983 215.080063,123.429924 207.969696,130.451004 
	C207.301361,131.110931 206.269089,131.402298 205.093658,131.470032 
	C205.239853,128.046967 205.698166,125.018669 206.156494,121.990372 
	C207.354507,121.555710 208.859894,121.441055 209.700195,120.633965 
	C214.792679,115.742821 219.771622,110.730682 224.682877,105.656723 
	C225.406815,104.908813 225.569717,103.617851 226.017670,102.205513 
	C227.625443,102.968201 229.207733,104.103531 230.916138,105.543137 
z"/>
<path fill="#FDFEFF" opacity="1.000000" stroke="none" 
	d="
M68.574425,105.067520 
	C69.353325,106.425163 69.851547,107.586487 70.630905,109.412811 
	C74.055931,124.637009 60.028343,134.299454 47.809143,128.255310 
	C46.116451,126.909103 44.637360,125.778603 43.158268,124.648102 
	C34.545677,111.640244 43.564785,99.408669 53.905281,98.555046 
	C59.857040,98.063713 64.558197,100.349884 68.574425,105.067520 
z"/>
<path fill="#5BDCFA" opacity="1.000000" stroke="none" 
	d="
M42.994068,124.970665 
	C44.637360,125.778603 46.116451,126.909103 47.928833,128.596939 
	C49.854244,131.101944 51.446369,133.049591 52.745186,135.157700 
	C39.388947,148.291092 26.346668,161.285004 13.234558,174.208038 
	C11.746367,175.674774 9.865572,176.743164 8.166819,177.996262 
	C7.782711,171.959747 7.398603,165.923233 7.090157,159.441711 
	C8.490270,158.445999 10.148044,158.229919 11.088169,157.293411 
	C21.732180,146.690369 32.266304,135.977020 42.994068,124.970665 
z"/>
<path fill="#32C1F7" opacity="1.000000" stroke="none" 
	d="
M87.996986,210.833862 
	C83.941147,210.217026 79.885307,209.600204 75.429352,208.563660 
	C76.205070,206.410522 77.145363,204.444046 78.593773,202.980377 
	C90.843735,190.601303 103.186501,178.314056 115.501289,165.999100 
	C122.759247,158.741043 122.742218,158.341721 114.846123,151.524719 
	C114.598572,151.311005 114.285881,151.172729 113.840805,150.712921 
	C111.784950,148.284561 109.891869,146.142593 108.363464,143.986664 
	C112.271355,141.362518 116.145386,139.093643 119.276825,136.058594 
	C123.505989,131.959641 127.164291,127.271698 131.398285,122.920517 
	C134.150635,125.005424 136.572220,127.006302 139.051392,129.346085 
	C143.407028,134.455841 147.705124,139.226669 151.857742,144.303253 
	C150.289124,146.425003 149.033661,148.407959 147.417175,150.031464 
	C128.898865,168.630219 110.310471,187.159195 91.795860,205.761597 
	C90.320335,207.244110 89.253662,209.133545 87.996986,210.833862 
z"/>
<path fill="#42CDF8" opacity="1.000000" stroke="none" 
	d="
M47.997437,204.833054 
	C41.972649,204.883591 35.947865,204.934113 29.525908,204.581863 
	C30.267399,202.771057 31.292072,201.249649 32.562496,199.972733 
	C44.310116,188.165115 56.100292,176.399826 67.877823,164.621964 
	C74.980858,157.518707 74.980621,157.518463 69.347336,149.946289 
	C71.839188,148.385818 74.141418,147.061172 76.095016,145.340668 
	C81.807007,140.310196 87.379974,135.121872 93.295258,130.160614 
	C98.059952,134.882858 102.536827,139.439896 106.723236,144.159973 
	C87.901306,162.772110 69.345688,181.197128 50.888866,199.720581 
	C49.556625,201.057648 48.944420,203.112137 47.997437,204.833054 
z"/>
<path fill="#4BD2F9" opacity="1.000000" stroke="none" 
	d="
M68.998436,150.001221 
	C74.980621,157.518463 74.980858,157.518707 67.877823,164.621964 
	C56.100292,176.399826 44.310116,188.165115 32.562496,199.972733 
	C31.292072,201.249649 30.267399,202.771057 29.062801,204.506531 
	C24.365274,204.889496 19.667616,205.427628 15.128665,204.806335 
	C12.688430,204.472305 10.520559,202.148560 8.525984,200.295288 
	C9.640127,199.317291 10.573652,198.882492 11.259100,198.198929 
	C27.771423,181.731949 44.270336,165.251419 60.715698,148.717667 
	C61.716068,147.711914 62.253391,146.245560 63.290176,145.154022 
	C65.382271,146.876755 67.190353,148.438995 68.998436,150.001221 
z"/>
<path fill="#2BBEF6" opacity="1.000000" stroke="none" 
	d="
M88.416428,210.908691 
	C89.253662,209.133545 90.320335,207.244110 91.795860,205.761597 
	C110.310471,187.159195 128.898865,168.630219 147.417175,150.031464 
	C149.033661,148.407959 150.289124,146.425003 152.147003,144.467468 
	C154.030151,145.692596 155.511734,147.026031 156.921173,148.431808 
	C162.381393,153.877838 162.380051,154.115662 157.002823,159.495117 
	C141.846954,174.657181 126.644989,189.773712 111.586304,205.031662 
	C109.965569,206.673828 109.165688,209.126129 107.621338,211.363373 
	C104.809395,211.717636 102.361130,211.911148 99.912872,212.104675 
	C96.220535,211.730972 92.528198,211.357254 88.416428,210.908691 
z"/>
<path fill="#53D7FA" opacity="1.000000" stroke="none" 
	d="
M63.006172,144.993530 
	C62.253391,146.245560 61.716068,147.711914 60.715698,148.717667 
	C44.270336,165.251419 27.771423,181.731949 11.259100,198.198929 
	C10.573652,198.882492 9.640127,199.317291 8.494664,199.932617 
	C8.116491,192.972519 8.065827,185.947800 8.090992,178.459671 
	C9.865572,176.743164 11.746367,175.674774 13.234558,174.208038 
	C26.346668,161.285004 39.388947,148.291092 53.031639,135.319702 
	C56.395874,137.568527 59.180347,139.815811 62.010468,142.372833 
	C62.372803,143.452911 62.689487,144.223221 63.006172,144.993530 
z"/>
<path fill="#3DC9F8" opacity="1.000000" stroke="none" 
	d="
M48.413322,204.918274 
	C48.944420,203.112137 49.556625,201.057648 50.888866,199.720581 
	C69.345688,181.197128 87.901306,162.772110 106.969437,144.160339 
	C107.506096,143.997635 107.998779,144.000610 107.998779,144.000610 
	C109.891869,146.142593 111.784950,148.284561 113.694962,151.018494 
	C112.289627,153.425400 111.033493,155.405487 109.419197,157.029541 
	C94.789810,171.747253 80.063301,186.368607 65.475464,201.127136 
	C63.951408,202.669006 63.139473,204.914780 61.997139,206.833969 
	C57.607834,206.223801 53.218521,205.613647 48.413322,204.918274 
z"/>
<path fill="#36C4F7" opacity="1.000000" stroke="none" 
	d="
M62.426849,206.908356 
	C63.139473,204.914780 63.951408,202.669006 65.475464,201.127136 
	C80.063301,186.368607 94.789810,171.747253 109.419197,157.029541 
	C111.033493,155.405487 112.289627,153.425400 113.857719,151.304871 
	C114.285881,151.172729 114.598572,151.311005 114.846123,151.524719 
	C122.742218,158.341721 122.759247,158.741043 115.501289,165.999100 
	C103.186501,178.314056 90.843735,190.601303 78.593773,202.980377 
	C77.145363,204.444046 76.205070,206.410522 75.013008,208.496643 
	C70.950043,208.227158 66.903305,207.604950 62.426849,206.908356 
z"/>
<path fill="#77E2A9" opacity="1.000000" stroke="none" 
	d="
M219.457779,246.908478 
	C219.549759,245.506958 219.774933,243.854767 220.712082,242.905258 
	C230.358856,233.131012 240.117523,223.467148 249.864822,213.792465 
	C250.196289,213.463486 250.736099,213.344452 251.506134,213.061035 
	C251.886887,221.592209 252.008743,230.190277 251.968124,238.787567 
	C251.943680,243.960526 248.935547,246.925842 243.741623,246.973892 
	C235.802200,247.047348 227.861572,246.987320 219.457779,246.908478 
z"/>
<path fill="#7CE1B3" opacity="1.000000" stroke="none" 
	d="
M162.932983,193.800446 
	C161.783508,195.538391 160.881348,197.520477 159.445190,198.975449 
	C148.524841,210.038742 137.486588,220.985580 126.526253,232.009644 
	C125.266937,233.276306 124.260948,234.794785 123.081161,236.526260 
	C120.737976,235.127106 118.451118,233.398178 116.334335,231.213776 
	C124.512482,223.044937 132.537872,215.349274 140.486435,207.575073 
	C140.973175,207.098969 140.852173,206.001465 141.330460,205.014709 
	C148.742325,201.157684 155.837646,197.479065 162.932983,193.800446 
z"/>
<path fill="#73DCAD" opacity="1.000000" stroke="none" 
	d="
M141.013931,205.193100 
	C140.852173,206.001465 140.973175,207.098969 140.486435,207.575073 
	C132.537872,215.349274 124.512482,223.044937 116.189270,230.903534 
	C114.290550,229.579498 112.706955,228.110229 111.335526,226.281006 
	C116.665283,220.499329 121.782875,215.077591 127.166725,209.491425 
	C128.621765,208.872787 129.810547,208.418579 131.377289,207.960724 
	C134.841476,207.035751 137.927704,206.114426 141.013931,205.193100 
z"/>
<path fill="#67D6A8" opacity="1.000000" stroke="none" 
	d="
M126.900459,209.655853 
	C121.782875,215.077591 116.665283,220.499329 111.198624,225.981720 
	C109.592979,224.904190 108.336418,223.766006 107.223526,222.078156 
	C110.244568,218.082550 113.121948,214.636658 116.419006,211.125031 
	C120.192612,210.591476 123.546539,210.123672 126.900459,209.655853 
z"/>
<path fill="#53CA9C" opacity="1.000000" stroke="none" 
	d="
M115.999329,211.190765 
	C113.121948,214.636658 110.244568,218.082550 107.134216,221.767639 
	C104.661095,218.918289 102.420952,215.829758 100.046844,212.422958 
	C102.361130,211.911148 104.809395,211.717636 108.067276,211.379669 
	C111.251038,211.220413 113.625183,211.205582 115.999329,211.190765 
z"/>
<path fill="#FDFEFF" opacity="1.000000" stroke="none" 
	d="
M105.596313,99.010201 
	C108.822609,101.519432 111.651596,104.027275 114.766411,107.018547 
	C115.286346,107.742157 115.520447,107.982330 115.754547,108.222511 
	C115.754547,108.222511 115.818611,108.152573 115.786606,108.583664 
	C118.171669,124.821739 108.088112,133.503662 92.882950,128.288986 
	C90.403572,125.720642 88.151939,123.374420 85.900307,121.028198 
	C83.011024,108.828865 88.048340,99.974602 98.786926,98.651192 
	C100.877831,98.393509 103.059303,98.870621 105.596313,99.010201 
z"/>
<path fill="#3DC9F8" opacity="1.000000" stroke="none" 
	d="
M85.589447,121.022598 
	C88.151939,123.374420 90.403572,125.720642 92.859047,128.660629 
	C93.044411,129.501404 93.025925,129.748413 93.007431,129.995422 
	C87.379974,135.121872 81.807007,140.310196 76.095016,145.340668 
	C74.141418,147.061172 71.839188,148.385818 69.347336,149.946289 
	C67.190353,148.438995 65.382271,146.876755 63.290176,145.154022 
	C62.689487,144.223221 62.372803,143.452911 62.228546,142.115173 
	C63.778370,140.353699 65.212013,139.218094 66.523476,137.955551 
	C72.379837,132.317734 78.201309,126.643700 84.035385,120.982750 
	C84.449791,120.994164 84.864189,121.005577 85.589447,121.022598 
z"/>
<path fill="#36C4F7" opacity="1.000000" stroke="none" 
	d="
M83.865295,120.696457 
	C78.201309,126.643700 72.379837,132.317734 66.523476,137.955551 
	C65.212013,139.218094 63.778370,140.353699 62.182896,141.805420 
	C59.180347,139.815811 56.395874,137.568527 53.324944,135.159256 
	C51.446369,133.049591 49.854244,131.101944 48.142433,128.812653 
	C60.028343,134.299454 74.055931,124.637009 70.858879,109.635818 
	C72.220512,109.969154 73.865234,110.499069 75.005547,111.567383 
	C78.018822,114.390396 80.813507,117.446724 83.865295,120.696457 
z"/>
<path fill="#31BCF3" opacity="1.000000" stroke="none" 
	d="
M115.836319,107.916794 
	C115.520447,107.982330 115.286346,107.742157 115.018402,107.237198 
	C115.158905,106.974014 115.333252,106.975632 115.769440,106.982803 
	C115.993546,107.195946 115.955811,107.403519 115.836319,107.916794 
z"/>
<path fill="#1DB4F4" opacity="1.000000" stroke="none" 
	d="
M141.330460,205.014709 
	C137.927704,206.114426 134.841476,207.035751 131.391129,207.601624 
	C131.946426,205.735962 132.610703,203.971893 133.823196,202.753296 
	C154.772232,181.699219 175.755463,160.678680 196.862335,139.783234 
	C198.333511,138.326813 200.831558,137.907654 202.852097,137.006149 
	C202.048264,139.449982 201.244446,141.893814 200.382660,144.678894 
	C197.215836,151.428741 194.106949,157.837357 190.884293,164.581940 
	C183.111694,175.813858 174.241089,185.537460 163.130066,193.542297 
	C155.837646,197.479065 148.742325,201.157684 141.330460,205.014709 
z"/>
<path fill="#FDFEFF" opacity="1.000000" stroke="none" 
	d="
M138.993820,129.007172 
	C136.572220,127.006302 134.150635,125.005424 131.376648,122.616837 
	C130.955978,121.829628 130.887695,121.430153 130.819412,121.030670 
	C129.486832,115.063614 129.106766,109.270317 133.471375,104.172897 
	C136.810394,100.273254 141.082001,98.521690 146.487000,98.372406 
	C150.683380,100.491692 154.503021,102.590652 158.608398,104.857147 
	C159.287033,105.902451 159.679916,106.780220 160.395844,108.263763 
	C160.960419,111.321770 161.665833,113.832809 161.363708,116.216125 
	C160.004974,126.934731 150.944977,132.020935 138.993820,129.007172 
z"/>
<path fill="#31BCF3" opacity="1.000000" stroke="none" 
	d="
M130.493835,120.959381 
	C130.887695,121.430153 130.955978,121.829628 131.045914,122.532791 
	C127.164291,127.271698 123.505989,131.959641 119.276825,136.058594 
	C116.145386,139.093643 112.271355,141.362518 108.363464,143.986664 
	C107.998779,144.000610 107.506096,143.997635 107.259903,143.997284 
	C102.536827,139.439896 98.059952,134.882858 93.295258,130.160614 
	C93.025925,129.748413 93.044411,129.501404 93.086792,128.882751 
	C108.088112,133.503662 118.171669,124.821739 115.745735,108.559608 
	C120.547333,112.365677 125.357788,116.626884 130.493835,120.959381 
z"/>
<path fill="#23B8F5" opacity="1.000000" stroke="none" 
	d="
M139.051392,129.346085 
	C150.944977,132.020935 160.004974,126.934731 161.363708,116.216125 
	C161.665833,113.832809 160.960419,111.321770 160.599747,108.481079 
	C163.821487,110.916954 167.162369,113.741280 170.751770,116.782799 
	C173.971497,120.090836 176.861420,123.265427 179.935989,126.249794 
	C183.247375,129.464020 186.454910,129.357193 189.717072,125.847855 
	C193.542511,121.732567 197.574020,117.801476 201.646896,113.927963 
	C202.903259,112.733109 204.587646,111.988297 206.415924,111.021637 
	C206.533264,114.387108 206.310730,117.768364 206.122345,121.569992 
	C205.698166,125.018669 205.239853,128.046967 204.733276,131.493195 
	C204.150406,133.391525 203.615784,134.871933 202.966614,136.679245 
	C200.831558,137.907654 198.333511,138.326813 196.862335,139.783234 
	C175.755463,160.678680 154.772232,181.699219 133.823196,202.753296 
	C132.610703,203.971893 131.946426,205.735962 131.013168,207.605270 
	C129.810547,208.418579 128.621765,208.872787 127.166725,209.491425 
	C123.546539,210.123672 120.192612,210.591476 116.419006,211.125031 
	C113.625183,211.205582 111.251038,211.220413 108.430962,211.218933 
	C109.165688,209.126129 109.965569,206.673828 111.586304,205.031662 
	C126.644989,189.773712 141.846954,174.657181 157.002823,159.495117 
	C162.380051,154.115662 162.381393,153.877838 156.921173,148.431808 
	C155.511734,147.026031 154.030151,145.692596 152.292465,144.161713 
	C147.705124,139.226669 143.407028,134.455841 139.051392,129.346085 
z"/>
</svg>